<svg width="100%" height="100%" viewBox="0 0 1024 1024" xmlns="http://www.w3.org/2000/svg">
<style>
    path {
        fill:rgb(249,212,63)
    }
</style>
    <path transform="matrix(1.19318,0,0,1.19318,-200,-200)" d="M608.741,510.927C600.292,509.691 591.708,509.691 583.259,510.927L581.693,536.276C574.891,537.853 568.396,540.543 562.471,544.238L543.44,527.421C536.591,532.521 530.521,538.591 525.421,545.44L542.238,564.471C538.543,570.396 535.853,576.891 534.276,583.693L508.927,585.259C507.691,593.708 507.691,602.292 508.927,610.741L534.276,612.307C535.853,619.109 538.543,625.604 542.238,631.529L525.421,650.56C530.521,657.409 536.591,663.479 543.44,668.579L562.471,651.762C568.396,655.457 574.891,658.147 581.693,659.724L583.259,685.073C591.708,686.309 600.292,686.309 608.741,685.073L610.307,659.724C617.109,658.147 623.604,655.457 629.529,651.762L648.56,668.579C655.409,663.479 661.479,657.409 666.579,650.56L649.762,631.529C653.457,625.604 656.147,619.109 657.724,612.307L683.073,610.741C684.309,602.292 684.309,593.708 683.073,585.259L657.724,583.693C656.147,576.891 653.457,570.396 649.762,564.471L666.579,545.44C661.479,538.591 655.409,532.521 648.56,527.421L629.529,544.238C623.604,540.543 617.109,537.853 610.307,536.276L608.741,510.927ZM596,580.4C605.714,580.4 613.6,588.286 613.6,598C613.6,607.714 605.714,615.6 596,615.6C586.286,615.6 578.4,607.714 578.4,598C578.4,588.286 586.286,580.4 596,580.4Z"/>
    <path d="M424.5,418.574L423.092,7.778C178.397,50.925 0,263.53 0,512C0,794.58 229.42,1024 512,1024C794.58,1024 1024,794.58 1024,512C1024,263.53 845.603,50.925 600.908,7.778L599.5,418.574C624.606,442.107 640,475.506 640,512C640,582.645 582.645,640 512,640C441.355,640 384,582.645 384,512C384,475.506 399.394,442.107 424.5,418.574Z"/>
</svg>
