<?xml version="1.0" encoding="UTF-8" standalone="no"?>
<svg width="100%" height="100%" viewBox="0 0 1024 1024" version="1.1" xmlns="http://www.w3.org/2000/svg" xml:space="preserve" style="fill-rule:evenodd;clip-rule:evenodd;stroke-linejoin:round;stroke-miterlimit:2;">
    <rect id="Artboard1" x="0" y="0" width="1024" height="1024" style="fill:none;"/>
    <g>
        <g transform="matrix(1.33777,0,0,1.33777,-654.532,-594.332)">
            <path d="M904.771,1201.57C1098.99,1184.58 1248,1021.96 1248,827C1248,619.48 1079.52,451 872,451C664.48,451 496,619.48 496,827C496,1021.96 645.013,1184.58 839.229,1201.57L845.784,1126.65C690.411,1113.06 571.2,982.966 571.2,827C571.2,660.984 705.984,526.2 872,526.2C1038.02,526.2 1172.8,660.984 1172.8,827C1172.8,982.966 1053.59,1113.06 898.216,1126.65L904.771,1201.57Z" style="fill:rgb(235,235,235);"/>
        </g>
        <g transform="matrix(0.928191,0,0,-0.928191,-294.383,1276.61)">
            <path d="M904.771,1201.57C1098.99,1184.58 1248,1021.96 1248,827C1248,619.48 1079.52,451 872,451C664.48,451 496,619.48 496,827C496,1021.96 645.013,1184.58 839.229,1201.57L845.784,1126.65C690.411,1113.06 571.2,982.966 571.2,827C571.2,660.984 705.984,526.2 872,526.2C1038.02,526.2 1172.8,660.984 1172.8,827C1172.8,982.966 1053.59,1113.06 898.216,1126.65L904.771,1201.57Z" style="fill:rgb(235,235,235);"/>
        </g>
    </g>
</svg>
