<?xml version="1.0" encoding="utf-8"?>
<svg viewBox="0 0 854 84" style="fill-rule: evenodd; clip-rule: evenodd; stroke-linejoin: round; stroke-miterlimit: 2; shape-rendering: crispedges;" xmlns="http://www.w3.org/2000/svg">
    <defs>
        <mask id="mask-0">
            <g id="Artboard1" transform="matrix(0.711578, 0, 0, 0.835706, 26.339678, 0.607269)" style="">
                <path d="M 110.81 61.65 L 95.3 74.86 L 95.3 61.65 L 110.81 61.65 Z M 58.6 74.86 L 58.6 61.65 L 74.12 61.65 L 74.12 74.86 L 58.6 74.86 Z M 22.04 74.86 L 22.04 61.65 L 37.56 61.65 L 37.56 74.86 L 22.04 74.86 Z M 95.3 59.23 L 95.3 46.02 L 110.81 46.02 L 110.81 59.23 L 95.3 59.23 Z M 58.6 59.23 L 58.6 46.02 L 74.12 46.02 L 74.12 59.23 L 58.6 59.23 Z M 22.04 59.23 L 22.04 46.02 L 37.56 46.02 L 37.56 59.23 L 22.04 59.23 Z M 95.3 30.4 L 110.81 43.61 L 95.3 43.61 L 95.3 30.4 Z M 76.95 43.61 L 76.95 30.4 L 92.47 30.4 L 92.47 43.61 L 76.95 43.61 Z M 74.12 43.61 L 58.6 30.4 L 58.6 43.61 L 74.12 43.61 Z M 40.39 43.61 L 40.39 30.4 L 55.91 30.4 L 55.91 43.61 L 40.39 43.61 Z M 22.04 43.61 L 37.56 30.4 L 37.56 43.61 L 22.04 43.61 Z" style="fill-rule: nonzero; fill: rgb(255, 255, 255);"/>
                <path d="M 180.97 74.86 L 180.97 61.65 L 196.48 61.65 L 196.48 74.86 L 180.97 74.86 Z M 162.62 74.86 L 162.62 61.65 L 178.14 61.65 L 178.14 74.86 L 162.62 74.86 Z M 144.41 74.86 L 144.41 61.65 L 159.79 61.65 L 159.79 74.86 L 144.41 74.86 Z M 141.57 74.86 L 126.06 61.65 L 141.57 61.65 L 141.57 74.86 Z M 196.48 46.02 L 180.97 59.23 L 180.97 46.02 L 196.48 46.02 Z M 126.06 59.23 L 126.06 46.02 L 141.57 46.02 L 141.57 59.23 L 126.06 59.23 Z M 180.97 43.73 L 180.97 30.52 L 196.48 30.52 L 196.48 43.73 L 180.97 43.73 Z M 162.62 43.73 L 162.62 30.52 L 178.14 30.52 L 178.14 43.73 L 162.62 43.73 Z M 144.41 43.73 L 144.41 30.52 L 159.79 30.52 L 159.79 43.73 L 144.41 43.73 Z M 126.06 43.73 L 141.57 30.52 L 141.57 43.73 L 126.06 43.73 Z" style="fill-rule: nonzero; fill: rgb(255, 255, 255);"/>
                <path d="M 265.56 74.74 L 265.56 61.53 L 280.94 61.53 L 280.94 74.74 L 265.56 74.74 Z M 210.65 74.74 L 210.65 61.53 L 226.03 61.53 L 226.03 74.74 L 210.65 74.74 Z M 265.56 59.12 L 265.56 45.91 L 280.94 45.91 L 280.94 59.12 L 265.56 59.12 Z M 210.65 59.12 L 210.65 45.91 L 226.03 45.91 L 226.03 59.12 L 210.65 59.12 Z M 265.56 30.29 L 280.94 43.5 L 265.56 43.5 L 265.56 30.29 Z M 247.21 43.5 L 247.21 30.29 L 262.73 30.29 L 262.73 43.5 L 247.21 43.5 Z M 228.86 43.5 L 244.38 30.29 L 244.38 43.5 L 228.86 43.5 Z M 210.65 43.5 L 210.65 30.29 L 226.03 30.29 L 226.03 43.5 L 210.65 43.5 Z" style="fill-rule: nonzero; fill: rgb(255, 255, 255);"/>
                <path d="M 365.93 77.04 L 350.42 90.25 L 350.42 77.04 L 365.93 77.04 Z M 350.42 74.74 L 350.42 61.53 L 365.93 61.53 L 365.93 74.74 L 350.42 74.74 Z M 347.58 61.53 L 332.21 74.74 L 332.21 61.53 L 347.58 61.53 Z M 313.86 74.74 L 313.86 61.53 L 329.37 61.53 L 329.37 74.74 L 313.86 74.74 Z M 311.02 74.74 L 295.51 61.53 L 311.02 61.53 L 311.02 74.74 Z M 350.42 59.12 L 350.42 45.91 L 365.93 45.91 L 365.93 59.12 L 350.42 59.12 Z M 295.51 59.12 L 295.51 45.91 L 311.02 45.91 L 311.02 59.12 L 295.51 59.12 Z M 350.42 30.29 L 365.93 43.5 L 350.42 43.5 L 350.42 30.29 Z M 332.21 43.5 L 332.21 30.29 L 347.58 30.29 L 347.58 43.5 L 332.21 43.5 Z M 313.86 43.5 L 313.86 30.29 L 329.37 30.29 L 329.37 43.5 L 313.86 43.5 Z M 295.51 43.5 L 311.02 30.29 L 311.02 43.5 L 295.51 43.5 Z" style="fill-rule: nonzero; fill: rgb(255, 255, 255);"/>
                <path d="M 434.6 74.86 L 434.6 61.65 L 450.12 61.65 L 450.12 74.86 L 434.6 74.86 Z M 416.26 74.86 L 416.26 61.65 L 431.77 61.65 L 431.77 74.86 L 416.26 74.86 Z M 398.04 74.86 L 398.04 61.65 L 413.42 61.65 L 413.42 74.86 L 398.04 74.86 Z M 395.21 74.86 L 379.69 61.65 L 395.21 61.65 L 395.21 74.86 Z M 450.12 46.02 L 434.6 59.23 L 434.6 46.02 L 450.12 46.02 Z M 379.69 59.23 L 379.69 46.02 L 395.21 46.02 L 395.21 59.23 L 379.69 59.23 Z M 434.6 43.73 L 434.6 30.52 L 450.12 30.52 L 450.12 43.73 L 434.6 43.73 Z M 416.26 43.73 L 416.26 30.52 L 431.77 30.52 L 431.77 43.73 L 416.26 43.73 Z M 398.04 43.73 L 398.04 30.52 L 413.42 30.52 L 413.42 43.73 L 398.04 43.73 Z M 379.69 43.73 L 395.21 30.52 L 395.21 43.73 L 379.69 43.73 Z" style="fill-rule: nonzero; fill: rgb(255, 255, 255);"/>
                <path d="M 519.19 74.74 L 519.19 61.53 L 534.57 61.53 L 534.57 74.74 L 519.19 74.74 Z M 464.28 74.74 L 464.28 61.53 L 479.66 61.53 L 479.66 74.74 L 464.28 74.74 Z M 519.19 59.12 L 519.19 45.91 L 534.57 45.91 L 534.57 59.12 L 519.19 59.12 Z M 464.28 59.12 L 464.28 45.91 L 479.66 45.91 L 479.66 59.12 L 464.28 59.12 Z M 519.19 30.29 L 534.57 43.5 L 519.19 43.5 L 519.19 30.29 Z M 500.84 43.5 L 500.84 30.29 L 516.36 30.29 L 516.36 43.5 L 500.84 43.5 Z M 482.5 43.5 L 498.01 30.29 L 498.01 43.5 L 482.5 43.5 Z M 464.28 43.5 L 464.28 30.29 L 479.66 30.29 L 479.66 43.5 L 464.28 43.5 Z" style="fill-rule: nonzero; fill: rgb(255, 255, 255);"/>
                <path d="M 583.55 61.53 L 568.03 74.74 L 568.03 61.53 L 583.55 61.53 Z M 565.2 74.74 L 549.68 61.53 L 565.2 61.53 L 565.2 74.74 Z M 549.68 59.23 L 549.68 46.02 L 565.2 46.02 L 565.2 59.23 L 549.68 59.23 Z M 549.68 43.61 L 549.68 30.4 L 565.2 30.4 L 565.2 43.61 L 549.68 43.61 Z M 549.68 14.78 L 565.2 27.99 L 549.68 27.99 L 549.68 14.78 Z" style="fill-rule: nonzero; fill: rgb(255, 255, 255);"/>
                <path d="M 649.11 74.86 L 649.11 61.65 L 664.63 61.65 L 664.63 74.86 L 649.11 74.86 Z M 630.76 74.86 L 630.76 61.65 L 646.28 61.65 L 646.28 74.86 L 630.76 74.86 Z M 612.55 74.86 L 612.55 61.65 L 627.93 61.65 L 627.93 74.86 L 612.55 74.86 Z M 609.72 74.86 L 594.2 61.65 L 609.72 61.65 L 609.72 74.86 Z M 664.63 46.02 L 649.11 59.23 L 649.11 46.02 L 664.63 46.02 Z M 594.2 59.23 L 594.2 46.02 L 609.72 46.02 L 609.72 59.23 L 594.2 59.23 Z M 649.11 43.73 L 649.11 30.52 L 664.63 30.52 L 664.63 43.73 L 649.11 43.73 Z M 630.76 43.73 L 630.76 30.52 L 646.28 30.52 L 646.28 43.73 L 630.76 43.73 Z M 612.55 43.73 L 612.55 30.52 L 627.93 30.52 L 627.93 43.73 L 612.55 43.73 Z M 594.2 43.73 L 609.72 30.52 L 609.72 43.73 L 594.2 43.73 Z" style="fill-rule: nonzero; fill: rgb(255, 255, 255);"/>
                <path d="M 733.57 74.74 L 733.57 61.53 L 749.08 61.53 L 749.08 74.74 L 733.57 74.74 Z M 678.66 74.74 L 678.66 61.53 L 694.17 61.53 L 694.17 74.74 L 678.66 74.74 Z M 733.57 59.12 L 733.57 45.91 L 749.08 45.91 L 749.08 59.12 L 733.57 59.12 Z M 678.66 59.12 L 678.66 45.91 L 694.17 45.91 L 694.17 59.12 L 678.66 59.12 Z M 733.57 30.4 L 749.08 43.5 L 733.57 43.5 L 733.57 30.4 Z M 715.22 43.5 L 715.22 30.4 L 730.73 30.4 L 730.73 43.5 L 715.22 43.5 Z M 697.01 43.5 L 712.52 30.4 L 712.52 43.5 L 697.01 43.5 Z M 678.66 43.5 L 678.66 30.4 L 694.17 30.4 L 694.17 43.5 L 678.66 43.5 Z M 678.66 14.78 L 694.17 27.99 L 678.66 27.99 L 678.66 14.78 Z" style="fill-rule: nonzero; fill: rgb(255, 255, 255);"/>
                <path d="M 763.25 74.86 L 763.25 61.65 L 778.76 61.65 L 778.76 74.86 L 763.25 74.86 Z M 818.16 59.35 L 818.16 46.14 L 833.67 46.14 L 833.67 59.35 L 818.16 59.35 Z M 763.25 59.35 L 763.25 46.14 L 778.76 46.14 L 778.76 59.35 L 763.25 59.35 Z M 818.16 30.52 L 833.67 43.73 L 818.16 43.73 L 818.16 30.52 Z M 799.94 43.73 L 799.94 30.52 L 815.46 30.52 L 815.46 43.73 L 799.94 43.73 Z M 781.6 43.73 L 781.6 30.52 L 797.11 30.52 L 797.11 43.73 L 781.6 43.73 Z M 763.25 43.73 L 778.76 30.52 L 778.76 43.73 L 763.25 43.73 Z" style="fill-rule: nonzero; fill: rgb(255, 255, 255);"/>
                <path d="M 901.94 74.86 L 901.94 61.65 L 917.45 61.65 L 917.45 74.86 L 901.94 74.86 Z M 883.59 74.86 L 883.59 61.65 L 899.1 61.65 L 899.1 74.86 L 883.59 74.86 Z M 865.38 74.86 L 865.38 61.65 L 880.76 61.65 L 880.76 74.86 L 865.38 74.86 Z M 862.54 74.86 L 847.03 61.65 L 862.54 61.65 L 862.54 74.86 Z M 917.45 46.02 L 901.94 59.23 L 901.94 46.02 L 917.45 46.02 Z M 847.03 59.23 L 847.03 46.02 L 862.54 46.02 L 862.54 59.23 L 847.03 59.23 Z M 901.94 43.73 L 901.94 30.52 L 917.45 30.52 L 917.45 43.73 L 901.94 43.73 Z M 883.59 43.73 L 883.59 30.52 L 899.1 30.52 L 899.1 43.73 L 883.59 43.73 Z M 865.38 43.73 L 865.38 30.52 L 880.76 30.52 L 880.76 43.73 L 865.38 43.73 Z M 847.03 43.73 L 862.54 30.52 L 862.54 43.73 L 847.03 43.73 Z" style="fill-rule: nonzero; fill: rgb(255, 255, 255);"/>
                <path d="M 947 30.4 L 947 43.61 L 931.62 43.61 L 931.62 30.4 L 947 30.4 Z M 1001.91 30.4 L 1001.91 43.61 L 986.53 43.61 L 986.53 30.4 L 1001.91 30.4 Z M 947 46.02 L 947 59.23 L 931.62 59.23 L 931.62 46.02 L 947 46.02 Z M 1001.91 46.02 L 1001.91 59.23 L 986.53 59.23 L 986.53 46.02 L 1001.91 46.02 Z M 947 74.74 L 931.62 61.53 L 947 61.53 L 947 74.74 Z M 965.35 61.53 L 965.35 74.74 L 949.83 74.74 L 949.83 61.53 L 965.35 61.53 Z M 983.69 61.53 L 968.18 74.74 L 968.18 61.53 L 983.69 61.53 Z M 1001.91 61.53 L 1001.91 74.74 L 986.53 74.74 L 986.53 61.53 L 1001.91 61.53 Z" style="fill-rule: nonzero; fill: rgb(255, 255, 255);"/>
                <path d="M 1070.98 74.74 L 1070.98 61.53 L 1086.5 61.53 L 1086.5 74.74 L 1070.98 74.74 Z M 1016.07 74.74 L 1016.07 61.53 L 1031.59 61.53 L 1031.59 74.74 L 1016.07 74.74 Z M 1070.98 59.12 L 1070.98 45.91 L 1086.5 45.91 L 1086.5 59.12 L 1070.98 59.12 Z M 1016.07 59.12 L 1016.07 45.91 L 1031.59 45.91 L 1031.59 59.12 L 1016.07 59.12 Z M 1070.98 30.4 L 1086.5 43.5 L 1070.98 43.5 L 1070.98 30.4 Z M 1052.63 43.5 L 1052.63 30.4 L 1068.15 30.4 L 1068.15 43.5 L 1052.63 43.5 Z M 1034.42 43.5 L 1049.94 30.4 L 1049.94 43.5 L 1034.42 43.5 Z M 1016.07 43.5 L 1016.07 30.4 L 1031.59 30.4 L 1031.59 43.5 L 1016.07 43.5 Z M 1016.07 14.78 L 1031.59 27.99 L 1016.07 27.99 L 1016.07 14.78 Z" style="fill-rule: nonzero; fill: rgb(255, 255, 255);"/>
                <path d="M 1100.66 74.86 L 1100.66 61.65 L 1116.18 61.65 L 1116.18 74.86 L 1100.66 74.86 Z M 1155.57 59.35 L 1155.57 46.14 L 1171.09 46.14 L 1171.09 59.35 L 1155.57 59.35 Z M 1100.66 59.35 L 1100.66 46.14 L 1116.18 46.14 L 1116.18 59.35 L 1100.66 59.35 Z M 1155.57 30.52 L 1171.09 43.73 L 1155.57 43.73 L 1155.57 30.52 Z M 1137.36 43.73 L 1137.36 30.52 L 1152.87 30.52 L 1152.87 43.73 L 1137.36 43.73 Z M 1119.01 43.73 L 1119.01 30.52 L 1134.52 30.52 L 1134.52 43.73 L 1119.01 43.73 Z M 1100.66 43.73 L 1116.18 30.52 L 1116.18 43.73 L 1100.66 43.73 Z" style="fill-rule: nonzero; fill: rgb(255, 255, 255);"/>
            </g>
        </mask>
    </defs>
    <g transform="matrix(1, 0, 0, 1, -26.339677810668945, -0.6072690486907959)" style="mask: url('#mask-0');">
        <path d="M 576 207 L 566 42 L 494 109 Z" style="fill: rgb(174,205,159);"/>
        <path d="M 494 109 L 467.994923857868 0 L 408.56962025316454 0 L 378 70 Z" style="fill: rgb(125,180,179);"/>
        <path d="M 566 42 L 527.5538461538462 0 L 467.994923857868 0 L 494 109 Z" style="fill: rgb(137,175,163);"/>
        <path d="M 527.5538461538462 0 L 566 42 L 559.5051546391752 0 Z" style="fill: rgb(136,167,156);"/>
        <path d="M 256.75 0 L 193.14117647058822 0 L 221 128 L 378 70 Z" style="fill: rgb(103,178,176);"/>
        <path d="M 408.56962025316454 0 L 346.1065088757396 0 L 378 70 Z" style="fill: rgb(106,165,174);"/>
        <path d="M 576 207 L 687 106 L 566 42 Z" style="fill: rgb(185,203,140);"/>
        <path d="M 559.5051546391752 0 L 566 42 L 669.0909090909091 0 Z" style="fill: rgb(156,164,128);"/>
        <path d="M 346.1065088757396 0 L 256.75 0 L 378 70 Z" style="fill: rgb(91,161,172);"/>
        <path d="M 193.14117647058822 0 L 176.03791469194312 0 L 144 169 L 221 128 Z" style="fill: rgb(102,181,176);"/>
        <path d="M 687 106 L 738.1205673758865 0 L 669.0909090909091 0 L 566 42 Z" style="fill: rgb(173,176,118);"/>
        <path d="M 810.9821428571429 0 L 738.1205673758865 0 L 687 106 Z" style="fill: rgb(174,160,111);"/>
        <path d="M 176.03791469194312 0 L 57.70212765957447 0 L 144 169 Z" style="fill: rgb(77,154,169);"/>
        <path d="M 845 101 L 819.5140186915888 0 L 810.9821428571429 0 L 687 106 Z" style="fill: rgb(188,172,112);"/>
        <path d="M 57.70212765957447 0 L 41.053763440860216 0 L 14 74 L 144 169 Z" style="fill: rgb(81,159,170);"/>
        <path d="M 819.5140186915888 0 L 845 101 L 900 85.48717948717949 L 900 36.138888888888886 L 829.6756756756756 0 Z" style="fill: rgb(190,155,107);"/>
    </g>
</svg>