<svg width="100%" height="100%" viewBox="0 0 641 63" version="1.1" xmlns="http://www.w3.org/2000/svg" xmlns:xlink="http://www.w3.org/1999/xlink" xml:space="preserve" style="fill:#3a3838;fill-rule:nonzero;fill-rule:evenodd;clip-rule:evenodd;stroke-linejoin:round;stroke-miterlimit:2;"><g><path d="M59.14,38.638l-8.28,8.28l0,-8.28l8.28,0Zm-27.864,8.28l0,-8.28l8.28,0l0,8.28l-8.28,0Zm-19.512,0l0,-8.28l8.28,0l0,8.28l-8.28,0Zm39.096,-9.792l0,-8.28l8.28,0l0,8.28l-8.28,0Zm-19.584,0l0,-8.28l8.28,0l0,8.28l-8.28,0Zm-19.512,0l0,-8.28l8.28,0l0,8.28l-8.28,0Zm39.096,-18.072l8.28,8.28l-8.28,0l0,-8.28Zm-9.792,8.28l0,-8.28l8.28,0l0,8.28l-8.28,0Zm-1.512,0l-8.28,-8.28l0,8.28l8.28,0Zm-18,0l0,-8.28l8.28,0l0,8.28l-8.28,0Zm-9.792,0l8.28,-8.28l0,8.28l-8.28,0Z" /><path d="M96.58,46.918l0,-8.28l8.28,0l0,8.28l-8.28,0Zm-9.792,0l0,-8.28l8.28,0l0,8.28l-8.28,0Zm-9.72,0l0,-8.28l8.208,0l0,8.28l-8.208,0Zm-1.512,0l-8.28,-8.28l8.28,0l0,8.28Zm29.304,-18.072l-8.28,8.28l0,-8.28l8.28,0Zm-37.584,8.28l0,-8.28l8.28,0l0,8.28l-8.28,0Zm29.304,-9.72l0,-8.28l8.28,0l0,8.28l-8.28,0Zm-9.792,0l0,-8.28l8.28,0l0,8.28l-8.28,0Zm-9.72,0l0,-8.28l8.208,0l0,8.28l-8.208,0Zm-9.792,0l8.28,-8.28l0,8.28l-8.28,0Z" /><path d="M141.724,46.846l0,-8.28l8.208,0l0,8.28l-8.208,0Zm-29.304,0l0,-8.28l8.208,0l0,8.28l-8.208,0Zm29.304,-9.792l0,-8.28l8.208,0l0,8.28l-8.208,0Zm-29.304,0l0,-8.28l8.208,0l0,8.28l-8.208,0Zm29.304,-18.072l8.208,8.28l-8.208,0l0,-8.28Zm-9.792,8.28l0,-8.28l8.28,0l0,8.28l-8.28,0Zm-9.792,0l8.28,-8.28l0,8.28l-8.28,0Zm-9.72,0l0,-8.28l8.208,0l0,8.28l-8.208,0Z" /><path d="M195.292,48.286l-8.28,8.28l0,-8.28l8.28,0Zm-8.28,-1.44l0,-8.28l8.28,0l0,8.28l-8.28,0Zm-1.512,-8.28l-8.208,8.28l0,-8.28l8.208,0Zm-18,8.28l0,-8.28l8.28,0l0,8.28l-8.28,0Zm-1.512,0l-8.28,-8.28l8.28,0l0,8.28Zm21.024,-9.792l0,-8.28l8.28,0l0,8.28l-8.28,0Zm-29.304,0l0,-8.28l8.28,0l0,8.28l-8.28,0Zm29.304,-18.072l8.28,8.28l-8.28,0l0,-8.28Zm-9.72,8.28l0,-8.28l8.208,0l0,8.28l-8.208,0Zm-9.792,0l0,-8.28l8.28,0l0,8.28l-8.28,0Zm-9.792,0l8.28,-8.28l0,8.28l-8.28,0Z" /><path d="M231.94,46.918l0,-8.28l8.28,0l0,8.28l-8.28,0Zm-9.792,0l0,-8.28l8.28,0l0,8.28l-8.28,0Zm-9.72,0l0,-8.28l8.208,0l0,8.28l-8.208,0Zm-1.512,0l-8.28,-8.28l8.28,0l0,8.28Zm29.304,-18.072l-8.28,8.28l0,-8.28l8.28,0Zm-37.584,8.28l0,-8.28l8.28,0l0,8.28l-8.28,0Zm29.304,-9.72l0,-8.28l8.28,0l0,8.28l-8.28,0Zm-9.792,0l0,-8.28l8.28,0l0,8.28l-8.28,0Zm-9.72,0l0,-8.28l8.208,0l0,8.28l-8.208,0Zm-9.792,0l8.28,-8.28l0,8.28l-8.28,0Z" /><path d="M277.084,46.846l0,-8.28l8.208,0l0,8.28l-8.208,0Zm-29.304,0l0,-8.28l8.208,0l0,8.28l-8.208,0Zm29.304,-9.792l0,-8.28l8.208,0l0,8.28l-8.208,0Zm-29.304,0l0,-8.28l8.208,0l0,8.28l-8.208,0Zm29.304,-18.072l8.208,8.28l-8.208,0l0,-8.28Zm-9.792,8.28l0,-8.28l8.28,0l0,8.28l-8.28,0Zm-9.792,0l8.28,-8.28l0,8.28l-8.28,0Zm-9.72,0l0,-8.28l8.208,0l0,8.28l-8.208,0Z" /><path d="M311.428,38.566l-8.28,8.28l0,-8.28l8.28,0Zm-9.792,8.28l-8.28,-8.28l8.28,0l0,8.28Zm-8.28,-9.72l0,-8.28l8.28,0l0,8.28l-8.28,0Zm0,-9.792l0,-8.28l8.28,0l0,8.28l-8.28,0Zm0,-18.072l8.28,8.28l-8.28,0l0,-8.28Z" /><path d="M346.42,46.918l0,-8.28l8.28,0l0,8.28l-8.28,0Zm-9.792,0l0,-8.28l8.28,0l0,8.28l-8.28,0Zm-9.72,0l0,-8.28l8.208,0l0,8.28l-8.208,0Zm-1.512,0l-8.28,-8.28l8.28,0l0,8.28Zm29.304,-18.072l-8.28,8.28l0,-8.28l8.28,0Zm-37.584,8.28l0,-8.28l8.28,0l0,8.28l-8.28,0Zm29.304,-9.72l0,-8.28l8.28,0l0,8.28l-8.28,0Zm-9.792,0l0,-8.28l8.28,0l0,8.28l-8.28,0Zm-9.72,0l0,-8.28l8.208,0l0,8.28l-8.208,0Zm-9.792,0l8.28,-8.28l0,8.28l-8.28,0Z" /><path d="M391.492,46.846l0,-8.28l8.28,0l0,8.28l-8.28,0Zm-29.304,0l0,-8.28l8.28,0l0,8.28l-8.28,0Zm29.304,-9.792l0,-8.28l8.28,0l0,8.28l-8.28,0Zm-29.304,0l0,-8.28l8.28,0l0,8.28l-8.28,0Zm29.304,-18l8.28,8.208l-8.28,0l0,-8.208Zm-9.792,8.208l0,-8.208l8.28,0l0,8.208l-8.28,0Zm-9.72,0l8.28,-8.208l0,8.208l-8.28,0Zm-9.792,0l0,-8.208l8.28,0l0,8.208l-8.28,0Zm0,-18l8.28,8.28l-8.28,0l0,-8.28Z" /><path d="M407.332,46.918l0,-8.28l8.28,0l0,8.28l-8.28,0Zm29.304,-9.72l0,-8.28l8.28,0l0,8.28l-8.28,0Zm-29.304,0l0,-8.28l8.28,0l0,8.28l-8.28,0Zm29.304,-18.072l8.28,8.28l-8.28,0l0,-8.28Zm-9.72,8.28l0,-8.28l8.28,0l0,8.28l-8.28,0Zm-9.792,0l0,-8.28l8.28,0l0,8.28l-8.28,0Zm-9.792,0l8.28,-8.28l0,8.28l-8.28,0Z" /><path d="M481.348,46.918l0,-8.28l8.28,0l0,8.28l-8.28,0Zm-9.792,0l0,-8.28l8.28,0l0,8.28l-8.28,0Zm-9.72,0l0,-8.28l8.208,0l0,8.28l-8.208,0Zm-1.512,0l-8.28,-8.28l8.28,0l0,8.28Zm29.304,-18.072l-8.28,8.28l0,-8.28l8.28,0Zm-37.584,8.28l0,-8.28l8.28,0l0,8.28l-8.28,0Zm29.304,-9.72l0,-8.28l8.28,0l0,8.28l-8.28,0Zm-9.792,0l0,-8.28l8.28,0l0,8.28l-8.28,0Zm-9.72,0l0,-8.28l8.208,0l0,8.28l-8.208,0Zm-9.792,0l8.28,-8.28l0,8.28l-8.28,0Z" /><path d="M505.396,19.054l0,8.28l-8.208,0l0,-8.28l8.208,0Zm29.304,0l0,8.28l-8.208,0l0,-8.28l8.208,0Zm-29.304,9.792l0,8.28l-8.208,0l0,-8.28l8.208,0Zm29.304,0l0,8.28l-8.208,0l0,-8.28l8.208,0Zm-29.304,18l-8.208,-8.28l8.208,0l0,8.28Zm9.792,-8.28l0,8.28l-8.28,0l0,-8.28l8.28,0Zm9.792,0l-8.28,8.28l0,-8.28l8.28,0Zm9.72,0l0,8.28l-8.208,0l0,-8.28l8.208,0Z" /><path d="M571.564,46.846l0,-8.28l8.28,0l0,8.28l-8.28,0Zm-29.304,0l0,-8.28l8.28,0l0,8.28l-8.28,0Zm29.304,-9.792l0,-8.28l8.28,0l0,8.28l-8.28,0Zm-29.304,0l0,-8.28l8.28,0l0,8.28l-8.28,0Zm29.304,-18l8.28,8.208l-8.28,0l0,-8.208Zm-9.792,8.208l0,-8.208l8.28,0l0,8.208l-8.28,0Zm-9.72,0l8.28,-8.208l0,8.208l-8.28,0Zm-9.792,0l0,-8.208l8.28,0l0,8.208l-8.28,0Zm0,-18l8.28,8.28l-8.28,0l0,-8.28Z" /><path d="M587.404,46.918l0,-8.28l8.28,0l0,8.28l-8.28,0Zm29.304,-9.72l0,-8.28l8.28,0l0,8.28l-8.28,0Zm-29.304,0l0,-8.28l8.28,0l0,8.28l-8.28,0Zm29.304,-18.072l8.28,8.28l-8.28,0l0,-8.28Zm-9.72,8.28l0,-8.28l8.28,0l0,8.28l-8.28,0Zm-9.792,0l0,-8.28l8.28,0l0,8.28l-8.28,0Zm-9.792,0l8.28,-8.28l0,8.28l-8.28,0Z" /></g></svg>