
<svg xmlns="http://www.w3.org/2000/svg" viewBox="0 0 158 246">
	<style>
		path {
			fill: black;
			fill-rule:evenodd;clip-rule:evenodd;
		}
	</style>
	<path d="M93,51.1c-3.4-0.8-7.1-1.5-10.6-2.5c-3-0.8-6.1-1.6-8.9-3.1c-4.4-2.2-5.8-6.1-5-10.9
	C70.6,22,70.6,22,83.7,20.5c1.4-0.2,3.2-0.5,4-1.4c7.5-8.3,16.8-7.8,26.3-5.7c3.1,0.7,5.7,1.3,8.8-0.9c3.4-2.5,6.3-0.1,8.6,2.6 c2.2,2.6,5.5,5.7,2.5,9.1c-2.8,3.1-2.1,6-1.9,9.2c0.7,10.4,1.6,20.9,1.8,31.3c0.3,15.8-0.1,31.7,0.2,47.5c0.1,3.8,1.4,7.7,2.6,11.4 c3.6,11,7.6,21.9,10.8,33.1c0.7,2.5-0.5,6.1-1.9,8.6c-3.9,7-4.3,14.3-3,21.8c1.4,7.5,3.3,15,5,22.4c1,4.1,0.1,7.5-2.9,10.5 c-3.8,3.9-6.9,8.8-11.3,11.9c-4.6,3.3-10.1,5.5-15.5,7.3c-3.6,1.2-7.5-0.2-9.1-4.2c-1.6-4.2-2.7-8.6,1.2-12.5 c2.7-2.7,5.3-5.5,8.1-8.4c-7.9-5.1-13.6-12.2-18-20.4c-0.6-1.2-3.2-2-4.7-1.8c-1.8,0.3-3.8,1.5-5.2,2.8c-9.2,8.6-18,17.4-17.5,31.6 c0.1,2.3-1.2,4.8-2.3,7c-1.2,2.4-3.1,3.5-6.2,2.4c-7.4-2.6-14.9-4.6-22.2-7.4c-3.3-1.3-6.5-3.4-9.3-5.7c-3-2.3-5.2-5.3-2.9-9.5 c3-5.6,5.7-7.1,11.2-5.7c2.2,0.6,4.3,1.7,6.6,2.3c2.1,0.6,4.3,0.9,7,1.4c-0.7-6.2-1.7-11.4-1.9-16.7c-0.2-6-0.2-12,0.6-17.9 c1.4-10.4,4.5-14,17.7-22.1c5.3,5.9,10.7,11.9,16.1,17.9c0.7-0.5,1.3-1.1,2-1.6c-3.3-6.3-6.5-12.7-9.9-19 c-3.4-6.3-6.9-12.5-10.5-19c-5.4,1.7-10.8,3.7-16.4,5.1c-13.7,3.4-34.9-9.9-37.9-23.6c-1.5-7,1.4-10.1,8.3-8 c4.4,1.3,9.5,1.5,11.6,7.3c0.4,1.2,5.2,2.4,6.7,1.5c14-8.7,27.7-17.8,41.1-27.6c-7.8,2.6-15.6,5.4-23.5,7.6 c-2.2,0.6-5.3,0.3-7.2-0.9C40.4,87.6,30,79.7,22.3 69c-3.2-4.4-5.8-9.3-7.7-14.4c-2-5.6,1-9.3,7-10c6.4-0.7,10.5,1.1,12.6,7 C39.1,65,50.6,67.9,62.5,70.6c1.6,0.4,3.3,0.3,5,0.6c5,0.6,8.5-0.5,11.7-5.2C82.8,60.6,88.1,56.3,93,51.1z"/>
</svg>
